CSPredictedFLsDeGroote.mot
version=1
nRows=11
nColumns=39
inDegrees=no
endheader
time	tibant_l	tibpost_l	gasmed_l	gaslat_l	soleus_l	edl_l	ehl_l	fdl_l	fhl_l	perbrev_l	perlong_l	bflh_l	bfsh_l	recfem_l	semimem_l	semiten_l	vasint_l	vaslat_l	vasmed_l	tibant_r	tibpost_r	gasmed_r	gaslat_r	soleus_r	edl_r	ehl_r	fdl_r	fhl_r	perbrev_r	perlong_r	bflh_r	bfsh_r	recfem_r	semimem_r	semiten_r	vasint_r	vaslat_r	vasmed_r
25.48999977	0.37170288	0.38199988	0.52995819	0.51944792	0.38226658	0.51030838	0.46961319	0.49695295	0.46236455	0.23653384	0.47112039	0.42998320	0.23275332	0.47588375	0.42130688	0.47434372	0.28102833	0.29351553	0.26993516	0.35863832	0.38553423	0.54433751	0.53405333	0.39606270	0.49886936	0.45836410	0.50020647	0.46740165	0.23942003	0.47415578	0.39593193	0.23006539	0.50211269	0.39278391	0.43964788	0.28642279	0.29907182	0.27545965
25.50000000	0.37192136	0.38198233	0.52974355	0.51943403	0.38206729	0.51073062	0.46974623	0.49703786	0.46232572	0.23642053	0.47113556	0.43006945	0.23293206	0.47568780	0.42154086	0.47443002	0.28070724	0.29325330	0.26968262	0.35824099	0.38562042	0.54469258	0.53430748	0.39641744	0.49854344	0.45802265	0.50028193	0.46752533	0.23949221	0.47424099	0.39547324	0.22978368	0.50276673	0.39219937	0.43899149	0.28697816	0.29961932	0.27601081
25.51000023	0.37194973	0.38194799	0.52941281	0.51923335	0.38203824	0.51105177	0.46981862	0.49719751	0.46233124	0.23634574	0.47120327	0.43010321	0.23305953	0.47557342	0.42174584	0.47443694	0.28054133	0.29320058	0.26961121	0.35784674	0.38570446	0.54503357	0.53453988	0.39676595	0.49822024	0.45768407	0.50035536	0.46764636	0.23956323	0.47432491	0.39498875	0.22947161	0.50346905	0.39157319	0.43828675	0.28758517	0.30022153	0.27661365
25.52000046	0.37185434	0.38190562	0.52905279	0.51894194	0.38213751	0.51128566	0.46984702	0.49739760	0.46235597	0.23630145	0.47128725	0.43005174	0.23313576	0.47554520	0.42189312	0.47435486	0.28050464	0.29334041	0.26970488	0.35746992	0.38578346	0.54534614	0.53473663	0.39709580	0.49791151	0.45736063	0.50042415	0.46776041	0.23963054	0.47440460	0.39448184	0.22913273	0.50421250	0.39090812	0.43753904	0.28823468	0.30087000	0.27725905
25.53000069	0.37169507	0.38186261	0.52866864	0.51860154	0.38229188	0.51140606	0.46983999	0.49756718	0.46239507	0.23630324	0.47135606	0.42990142	0.23318854	0.47557479	0.42196661	0.47419882	0.28050268	0.29356074	0.26986194	0.35712528	0.38585457	0.54561669	0.53489369	0.39739475	0.49762928	0.45706496	0.50048584	0.46786341	0.23969162	0.47447702	0.39395404	0.22877097	0.50499111	0.39020583	0.43675256	0.28891715	0.30155566	0.27793753
25.54000092	0.37153569	0.38181037	0.52828628	0.51827949	0.38243470	0.51143837	0.46982884	0.49767527	0.46241951	0.23634484	0.47139925	0.42966676	0.23324652	0.47561771	0.42196482	0.47400737	0.28045100	0.29374036	0.26998049	0.35682619	0.38591540	0.54583287	0.53499264	0.39765209	0.49738443	0.45680845	0.50053853	0.46795174	0.23974425	0.47453952	0.39340639	0.22838955	0.50579953	0.38946852	0.43593162	0.28962484	0.30227092	0.27864125
25.54999924	0.37140045	0.38179007	0.52806348	0.51810253	0.38257802	0.51139450	0.46978056	0.49773443	0.46245152	0.23641500	0.47141397	0.42932415	0.23330560	0.47569889	0.42185265	0.47374672	0.28034300	0.29385540	0.27004221	0.35658318	0.38596424	0.54598528	0.53499043	0.39785975	0.49718556	0.45660013	0.50058073	0.46802285	0.23978676	0.47459003	0.39284140	0.22799061	0.50663197	0.38870054	0.43508196	0.29035226	0.30301026	0.27936465
25.55999947	0.37137502	0.38182065	0.52796578	0.51806253	0.38263598	0.51134032	0.46972597	0.49774417	0.46247989	0.23649085	0.47137648	0.42887700	0.23338053	0.47582665	0.42162979	0.47341394	0.28016514	0.29386890	0.27001727	0.35640198	0.38600031	0.54606879	0.53480572	0.39801371	0.49703732	0.45644486	0.50061178	0.46807542	0.23981829	0.47462755	0.39226374	0.22757524	0.50748211	0.38790831	0.43421087	0.29109612	0.30377015	0.28010428
25.56999969	0.37144995	0.38187712	0.52791613	0.51807380	0.38259670	0.51129162	0.46968293	0.49770314	0.46248981	0.23655224	0.47130057	0.42834339	0.23346695	0.47602153	0.42130071	0.47301704	0.27993366	0.29377940	0.26989505	0.35628480	0.38602349	0.54608220	0.53454798	0.39811292	0.49694148	0.45634446	0.50063175	0.46810925	0.23983863	0.47465175	0.39167961	0.22714317	0.50834394	0.38709876	0.43332568	0.29185557	0.30454955	0.28085914
25.57999992	0.37160802	0.38193285	0.52789307	0.51810664	0.38246843	0.51127511	0.46967453	0.49762830	0.46246380	0.23657721	0.47120595	0.42775360	0.23352629	0.47632390	0.42086035	0.47254393	0.27970964	0.29363230	0.26969934	0.35623699	0.38603291	0.54601973	0.53421164	0.39815331	0.49690238	0.45630351	0.50063986	0.46812302	0.23984692	0.47466162	0.39109567	0.22669291	0.50921267	0.38627815	0.43243265	0.29263172	0.30534926	0.28163010
25.59000015	0.37182960	0.38197216	0.52788770	0.51815802	0.38225445	0.51129329	0.46971604	0.49752226	0.46240354	0.23656476	0.47110489	0.42712319	0.23352545	0.47676584	0.42028102	0.47196642	0.27954268	0.29346159	0.26945746	0.35627267	0.38602588	0.54586738	0.53378206	0.39812317	0.49693155	0.45633405	0.50063378	0.46811274	0.23984073	0.47465426	0.39051783	0.22622249	0.51008439	0.38545126	0.43153673	0.29342628	0.30617076	0.28241873
